<svg id="Camada_1" data-name="Camada 1" xmlns="http://www.w3.org/2000/svg" viewBox="0 0 126.45 277.76"><defs><style>.cls-1{fill:#f7f7f7;}</style></defs><path class="cls-1" d="M35.25,192.81c-3.52-.39-6.38,5.52-9.76,1.84-2.46-2.69.22-6.39,1.5-9.16C51.6,132.14,81.24,81.84,118,36c10.08-12.55,13.08-11.59,18.41,4.34C151,83.91,152.07,129,150.3,174.18c-1.51,38.55-5.77,76.85-14.23,114.57a95.16,95.16,0,0,1-3.87,12.93c-1.54,4-4.33,4.66-7.49,1.51a15.28,15.28,0,0,1-3-3.88c-12.66-26.36-33.4-45.21-57-61.12-7.08-4.77-6.51-17.35-18-17,5-14.95-4.93-12.18-13.46-11.88-2.05.08-2.31-3.14-.9-5,2.21-2.86,4.69-5.51,7.06-8.24,2-1.12,3.1-3,1.47-4.75C38.61,188.83,36.85,191.11,35.25,192.81Z" transform="translate(-24.49 -27.43)"/></svg>