<svg id="Camada_1" data-name="Camada 1" xmlns="http://www.w3.org/2000/svg" viewBox="0 0 128.33 277.76"><defs><style>.cls-1{fill:#f7f7f7;}</style></defs><path class="cls-1" d="M46.79,27.33c5.54,2.11,9.16,6.74,12.77,11.16,24,29.47,43.81,61.76,62.88,94.5,9.95,17.07,19.42,34.4,27.05,52.64,1.18,2.83,3.86,6.3,1.35,9.17s-5.22-.48-7.73-1.46c-2-.77-4.08-1.56-5.49.54-1.78,2.66.4,4.42,2,6.32,2,2.38,6.54,3.76,4.83,7.71-1.91,4.43-5.86.31-8.77,1-2.33.58-6.59,1.61-6.55,2.27.68,13.64-11.55,18.83-18.59,26.7-8.39,9.37-20,15.85-29.7,24.12-10.5,8.94-17.33,20.8-24.45,32.41-2.62,4.27-4.24,11.74-10.47,10.51-5.77-1.14-5.54-8.59-6.69-13.54-9.49-41-14-82.66-15.3-124.65-1.27-40,.39-79.76,11.7-118.55,1.6-5.51,3.76-10.86,5.8-16.24C42.3,29.62,43.68,27.55,46.79,27.33ZM136.4,194.05l.89-.88a8.34,8.34,0,0,0-1.67-.77c-.21-.05-.54.5-.82.77Z" transform="translate(-23.55 -27.33)"/></svg>